<?xml version="1.0" encoding="utf-8"?>
<!-- Generator: Adobe Illustrator 16.0.0, SVG Export Plug-In . SVG Version: 6.00 Build 0)  -->
<!DOCTYPE svg PUBLIC "-//W3C//DTD SVG 1.1//EN" "http://www.w3.org/Graphics/SVG/1.1/DTD/svg11.dtd">
<svg version="1.1" id="Layer_2" xmlns="http://www.w3.org/2000/svg" xmlns:xlink="http://www.w3.org/1999/xlink" x="0px" y="0px"
	 width="80px" height="40px" viewBox="0 0 80 40" enable-background="new 0 0 80 40" xml:space="preserve">
<g>
	<path fill="#D9D9D9" d="M38,2v36H2V2H38 M40,0H0v40h40V0L40,0z"/>
</g>
<g>
	<path fill="#D9D9D9" d="M78,2v36H42V2H78 M80,0H40v40h40V0L80,0z"/>
</g>
<rect x="12" y="13" fill="#D9D9D9" width="17" height="2"/>
<rect x="12" y="19" fill="#D9D9D9" width="17" height="2"/>
<rect x="12" y="25" fill="#D9D9D9" width="17" height="2"/>
<rect x="52" y="19" transform="matrix(0.7071 0.7071 -0.7071 0.7071 31.8585 -36.9204)" fill="#D9D9D9" width="17" height="2"/>
<rect x="52" y="19" transform="matrix(0.707 -0.7072 0.7072 0.707 3.5802 48.6424)" fill="#D9D9D9" width="17" height="2"/>
</svg>
